<mxfile host="65bd71144e">
    <diagram id="HIP3nbAZw_EuaXWnEj3U" name="Page-1">
        <mxGraphModel dx="1102" dy="893" grid="1" gridSize="10" guides="1" tooltips="1" connect="1" arrows="1" fold="1" page="1" pageScale="1" pageWidth="850" pageHeight="1100" math="0" shadow="0">
            <root>
                <mxCell id="0"/>
                <mxCell id="1" parent="0"/>
                <mxCell id="7" value="http://ics2o.mths.ca" style="swimlane;whiteSpace=wrap;html=1;" parent="1" vertex="1">
                    <mxGeometry x="45" y="310" width="760" height="480" as="geometry"/>
                </mxCell>
                <mxCell id="8" value="Positive or Negative #, in JS" style="text;html=1;align=center;verticalAlign=middle;resizable=0;points=[];autosize=1;strokeColor=none;fillColor=none;fontSize=18;" vertex="1" parent="7">
                    <mxGeometry x="35" y="40" width="250" height="40" as="geometry"/>
                </mxCell>
                <mxCell id="9" value="Select what kind of number you would like." style="text;html=1;align=left;verticalAlign=middle;resizable=0;points=[];autosize=1;strokeColor=none;fillColor=none;fontSize=14;" vertex="1" parent="7">
                    <mxGeometry x="20" y="105" width="290" height="30" as="geometry"/>
                </mxCell>
                <mxCell id="10" value="Positive" style="text;html=1;align=center;verticalAlign=middle;resizable=0;points=[];autosize=1;strokeColor=none;fillColor=none;fontSize=14;" vertex="1" parent="7">
                    <mxGeometry x="50" y="175" width="70" height="30" as="geometry"/>
                </mxCell>
                <mxCell id="12" value="Your number is: 1" style="text;html=1;align=center;verticalAlign=middle;resizable=0;points=[];autosize=1;strokeColor=none;fillColor=none;fontSize=14;" vertex="1" parent="7">
                    <mxGeometry x="35" y="325" width="140" height="30" as="geometry"/>
                </mxCell>
                <mxCell id="13" value="Generate" style="whiteSpace=wrap;html=1;" vertex="1" parent="7">
                    <mxGeometry x="35" y="252" width="140" height="40" as="geometry"/>
                </mxCell>
                <mxCell id="14" value="Negative" style="text;html=1;align=center;verticalAlign=middle;resizable=0;points=[];autosize=1;strokeColor=none;fillColor=none;fontSize=14;" vertex="1" parent="7">
                    <mxGeometry x="220" y="175" width="80" height="30" as="geometry"/>
                </mxCell>
                <mxCell id="15" value="" style="ellipse;whiteSpace=wrap;html=1;gradientColor=default;fillColor=none;" vertex="1" parent="7">
                    <mxGeometry x="35" y="185" width="10" height="10" as="geometry"/>
                </mxCell>
                <mxCell id="17" value="" style="ellipse;whiteSpace=wrap;html=1;fillColor=none;" vertex="1" parent="7">
                    <mxGeometry x="175" y="185" width="10" height="10" as="geometry"/>
                </mxCell>
            </root>
        </mxGraphModel>
    </diagram>
</mxfile>